<mxfile host="app.diagrams.net" modified="2023-10-09T09:44:31.924Z" agent="Mozilla/5.0 (Macintosh; Intel Mac OS X 10_15_7) AppleWebKit/605.1.15 (KHTML, like Gecko) Version/16.6 Safari/605.1.15" etag="PGPFP6MB4e6PfFl13ebE" version="22.0.4" type="device" pages="2">
  <diagram name="Страница — 1" id="KeEYjUVEmZE4yADr4s7v">
    <mxGraphModel dx="1434" dy="855" grid="1" gridSize="10" guides="1" tooltips="1" connect="1" arrows="1" fold="1" page="1" pageScale="1" pageWidth="827" pageHeight="1169" math="0" shadow="0">
      <root>
        <mxCell id="0" />
        <mxCell id="1" parent="0" />
        <mxCell id="r1fxnzbcHuvRSDstyBEK-41" style="edgeStyle=orthogonalEdgeStyle;rounded=0;orthogonalLoop=1;jettySize=auto;html=1;exitX=0.5;exitY=1;exitDx=0;exitDy=0;exitPerimeter=0;entryX=0.5;entryY=0;entryDx=0;entryDy=0;endArrow=none;endFill=0;" parent="1" source="r1fxnzbcHuvRSDstyBEK-42" target="r1fxnzbcHuvRSDstyBEK-44" edge="1">
          <mxGeometry relative="1" as="geometry" />
        </mxCell>
        <mxCell id="r1fxnzbcHuvRSDstyBEK-42" value="Начало" style="strokeWidth=2;html=1;shape=mxgraph.flowchart.terminator;whiteSpace=wrap;" parent="1" vertex="1">
          <mxGeometry x="390" y="50" width="120" height="60" as="geometry" />
        </mxCell>
        <mxCell id="r1fxnzbcHuvRSDstyBEK-43" style="edgeStyle=orthogonalEdgeStyle;rounded=0;orthogonalLoop=1;jettySize=auto;html=1;exitX=0.5;exitY=1;exitDx=0;exitDy=0;entryX=0.5;entryY=0;entryDx=0;entryDy=0;endArrow=none;endFill=0;" parent="1" source="r1fxnzbcHuvRSDstyBEK-44" target="r1fxnzbcHuvRSDstyBEK-47" edge="1">
          <mxGeometry relative="1" as="geometry" />
        </mxCell>
        <mxCell id="r1fxnzbcHuvRSDstyBEK-44" value="lenA = len(s1)&lt;br&gt;lenB = len(s2)&lt;br&gt;dist = 0" style="rounded=0;whiteSpace=wrap;html=1;strokeWidth=2;" parent="1" vertex="1">
          <mxGeometry x="370" y="130" width="160" height="60" as="geometry" />
        </mxCell>
        <mxCell id="r1fxnzbcHuvRSDstyBEK-45" style="edgeStyle=orthogonalEdgeStyle;rounded=0;orthogonalLoop=1;jettySize=auto;html=1;exitX=1;exitY=0.5;exitDx=0;exitDy=0;entryX=0.5;entryY=0;entryDx=0;entryDy=0;endArrow=none;endFill=0;" parent="1" source="r1fxnzbcHuvRSDstyBEK-47" target="r1fxnzbcHuvRSDstyBEK-51" edge="1">
          <mxGeometry relative="1" as="geometry">
            <mxPoint x="590" y="310" as="targetPoint" />
          </mxGeometry>
        </mxCell>
        <mxCell id="r1fxnzbcHuvRSDstyBEK-46" style="edgeStyle=orthogonalEdgeStyle;rounded=0;orthogonalLoop=1;jettySize=auto;html=1;exitX=0;exitY=0.5;exitDx=0;exitDy=0;entryX=0.5;entryY=0;entryDx=0;entryDy=0;endArrow=classic;endFill=1;" parent="1" source="r1fxnzbcHuvRSDstyBEK-47" target="r1fxnzbcHuvRSDstyBEK-74" edge="1">
          <mxGeometry relative="1" as="geometry" />
        </mxCell>
        <mxCell id="r1fxnzbcHuvRSDstyBEK-47" value="lenA == 0" style="rhombus;whiteSpace=wrap;html=1;strokeWidth=2;" parent="1" vertex="1">
          <mxGeometry x="370" y="210" width="160" height="80" as="geometry" />
        </mxCell>
        <mxCell id="r1fxnzbcHuvRSDstyBEK-48" style="edgeStyle=orthogonalEdgeStyle;rounded=0;orthogonalLoop=1;jettySize=auto;html=1;exitX=0;exitY=0.5;exitDx=0;exitDy=0;entryX=0.5;entryY=0;entryDx=0;entryDy=0;" parent="1" source="r1fxnzbcHuvRSDstyBEK-51" target="r1fxnzbcHuvRSDstyBEK-52" edge="1">
          <mxGeometry relative="1" as="geometry" />
        </mxCell>
        <mxCell id="r1fxnzbcHuvRSDstyBEK-49" value="ДА" style="edgeLabel;html=1;align=center;verticalAlign=middle;resizable=0;points=[];" parent="r1fxnzbcHuvRSDstyBEK-48" vertex="1" connectable="0">
          <mxGeometry x="-0.2462" y="2" relative="1" as="geometry">
            <mxPoint x="9" y="-12" as="offset" />
          </mxGeometry>
        </mxCell>
        <mxCell id="r1fxnzbcHuvRSDstyBEK-50" style="edgeStyle=orthogonalEdgeStyle;rounded=0;orthogonalLoop=1;jettySize=auto;html=1;exitX=1;exitY=0.5;exitDx=0;exitDy=0;entryX=0.5;entryY=0;entryDx=0;entryDy=0;endArrow=none;endFill=0;" parent="1" source="r1fxnzbcHuvRSDstyBEK-51" target="r1fxnzbcHuvRSDstyBEK-59" edge="1">
          <mxGeometry relative="1" as="geometry" />
        </mxCell>
        <mxCell id="r1fxnzbcHuvRSDstyBEK-51" value="lenB == 0" style="rhombus;whiteSpace=wrap;html=1;strokeWidth=2;" parent="1" vertex="1">
          <mxGeometry x="520" y="330" width="160" height="80" as="geometry" />
        </mxCell>
        <mxCell id="r1fxnzbcHuvRSDstyBEK-52" value="dist = lenA" style="rounded=0;whiteSpace=wrap;html=1;strokeWidth=2;" parent="1" vertex="1">
          <mxGeometry x="370" y="430" width="160" height="60" as="geometry" />
        </mxCell>
        <mxCell id="r1fxnzbcHuvRSDstyBEK-53" value="Конец" style="strokeWidth=2;html=1;shape=mxgraph.flowchart.terminator;whiteSpace=wrap;" parent="1" vertex="1">
          <mxGeometry x="680" y="1000" width="120" height="60" as="geometry" />
        </mxCell>
        <mxCell id="r1fxnzbcHuvRSDstyBEK-55" style="edgeStyle=orthogonalEdgeStyle;rounded=0;orthogonalLoop=1;jettySize=auto;html=1;exitX=0.5;exitY=1;exitDx=0;exitDy=0;endArrow=none;endFill=0;" parent="1" source="r1fxnzbcHuvRSDstyBEK-56" target="r1fxnzbcHuvRSDstyBEK-67" edge="1">
          <mxGeometry relative="1" as="geometry">
            <Array as="points">
              <mxPoint x="650" y="610" />
              <mxPoint x="810" y="610" />
            </Array>
          </mxGeometry>
        </mxCell>
        <mxCell id="r1fxnzbcHuvRSDstyBEK-56" value="dist = min(DL(s1, s2[:lenB-1] + 1), DL(s1[:lenA-1], s2 + 1),&lt;br&gt;DL(s1[:lenA-1], s2[:lenB-1]))" style="rounded=0;whiteSpace=wrap;html=1;strokeWidth=2;" parent="1" vertex="1">
          <mxGeometry x="550" y="510" width="200" height="70" as="geometry" />
        </mxCell>
        <mxCell id="r1fxnzbcHuvRSDstyBEK-57" style="edgeStyle=orthogonalEdgeStyle;rounded=0;orthogonalLoop=1;jettySize=auto;html=1;exitX=0;exitY=0.5;exitDx=0;exitDy=0;entryX=0.5;entryY=0;entryDx=0;entryDy=0;" parent="1" source="r1fxnzbcHuvRSDstyBEK-59" target="r1fxnzbcHuvRSDstyBEK-56" edge="1">
          <mxGeometry relative="1" as="geometry" />
        </mxCell>
        <mxCell id="r1fxnzbcHuvRSDstyBEK-58" value="Да" style="edgeStyle=orthogonalEdgeStyle;rounded=0;orthogonalLoop=1;jettySize=auto;html=1;exitX=1;exitY=0.5;exitDx=0;exitDy=0;fontSize=12;endArrow=none;endFill=0;" parent="1" source="r1fxnzbcHuvRSDstyBEK-59" target="r1fxnzbcHuvRSDstyBEK-62" edge="1">
          <mxGeometry x="-0.3701" y="10" relative="1" as="geometry">
            <mxPoint as="offset" />
          </mxGeometry>
        </mxCell>
        <mxCell id="r1fxnzbcHuvRSDstyBEK-59" value="s1[lenA - 1] != s2[lenB - 1]" style="rhombus;whiteSpace=wrap;html=1;strokeWidth=2;" parent="1" vertex="1">
          <mxGeometry x="730" y="420" width="160" height="80" as="geometry" />
        </mxCell>
        <mxCell id="r1fxnzbcHuvRSDstyBEK-61" style="edgeStyle=orthogonalEdgeStyle;rounded=0;orthogonalLoop=1;jettySize=auto;html=1;exitX=0.5;exitY=1;exitDx=0;exitDy=0;endArrow=none;endFill=0;" parent="1" source="r1fxnzbcHuvRSDstyBEK-62" edge="1">
          <mxGeometry relative="1" as="geometry">
            <mxPoint x="810" y="630" as="targetPoint" />
          </mxGeometry>
        </mxCell>
        <mxCell id="r1fxnzbcHuvRSDstyBEK-62" value="dist = min(DL(s1, s2[:lenB-1] + 1), DL(s1[:lenA-1], s2 + 1),&lt;br&gt;DL(s1[:lenA-1], s2[:lenB-1]))" style="rounded=0;whiteSpace=wrap;html=1;strokeWidth=2;" parent="1" vertex="1">
          <mxGeometry x="857" y="520" width="200" height="70" as="geometry" />
        </mxCell>
        <mxCell id="r1fxnzbcHuvRSDstyBEK-64" style="edgeStyle=orthogonalEdgeStyle;rounded=0;orthogonalLoop=1;jettySize=auto;html=1;exitX=1;exitY=0.5;exitDx=0;exitDy=0;entryX=0.5;entryY=0;entryDx=0;entryDy=0;endArrow=none;endFill=0;" parent="1" source="r1fxnzbcHuvRSDstyBEK-67" target="r1fxnzbcHuvRSDstyBEK-69" edge="1">
          <mxGeometry relative="1" as="geometry" />
        </mxCell>
        <mxCell id="r1fxnzbcHuvRSDstyBEK-65" value="ДА" style="edgeLabel;html=1;align=center;verticalAlign=middle;resizable=0;points=[];fontSize=12;" parent="r1fxnzbcHuvRSDstyBEK-64" vertex="1" connectable="0">
          <mxGeometry x="-0.3056" y="5" relative="1" as="geometry">
            <mxPoint y="-12" as="offset" />
          </mxGeometry>
        </mxCell>
        <mxCell id="r1fxnzbcHuvRSDstyBEK-66" style="edgeStyle=orthogonalEdgeStyle;rounded=0;orthogonalLoop=1;jettySize=auto;html=1;exitX=0;exitY=0.5;exitDx=0;exitDy=0;entryX=0.5;entryY=0;entryDx=0;entryDy=0;entryPerimeter=0;" parent="1" source="r1fxnzbcHuvRSDstyBEK-67" target="r1fxnzbcHuvRSDstyBEK-53" edge="1">
          <mxGeometry relative="1" as="geometry">
            <mxPoint x="720" y="979.9999999999998" as="targetPoint" />
            <Array as="points">
              <mxPoint x="690" y="670" />
              <mxPoint x="690" y="960" />
              <mxPoint x="780" y="960" />
              <mxPoint x="780" y="980" />
              <mxPoint x="740" y="980" />
            </Array>
          </mxGeometry>
        </mxCell>
        <mxCell id="r1fxnzbcHuvRSDstyBEK-67" value="lenB &amp;gt; 1 &amp;amp;&amp;amp; lenA &amp;gt; 1" style="rhombus;whiteSpace=wrap;html=1;strokeWidth=2;" parent="1" vertex="1">
          <mxGeometry x="730" y="630" width="160" height="80" as="geometry" />
        </mxCell>
        <mxCell id="r1fxnzbcHuvRSDstyBEK-68" style="edgeStyle=orthogonalEdgeStyle;rounded=0;orthogonalLoop=1;jettySize=auto;html=1;exitX=1;exitY=0.5;exitDx=0;exitDy=0;entryX=0.5;entryY=0;entryDx=0;entryDy=0;endArrow=none;endFill=0;" parent="1" source="r1fxnzbcHuvRSDstyBEK-69" target="r1fxnzbcHuvRSDstyBEK-71" edge="1">
          <mxGeometry relative="1" as="geometry" />
        </mxCell>
        <mxCell id="r1fxnzbcHuvRSDstyBEK-69" value="s1[lenA-1] == s2[lenB-2]&lt;br&gt;&amp;amp;&amp;amp;&lt;br&gt;s1[lenA-2] == s2[lenB-1]" style="rhombus;whiteSpace=wrap;html=1;strokeWidth=2;" parent="1" vertex="1">
          <mxGeometry x="870" y="710" width="200" height="100" as="geometry" />
        </mxCell>
        <mxCell id="r1fxnzbcHuvRSDstyBEK-70" style="edgeStyle=orthogonalEdgeStyle;rounded=0;orthogonalLoop=1;jettySize=auto;html=1;exitX=0.5;exitY=1;exitDx=0;exitDy=0;endArrow=none;endFill=0;" parent="1" edge="1">
          <mxGeometry relative="1" as="geometry">
            <mxPoint x="780" y="980" as="targetPoint" />
            <mxPoint x="1132" y="900" as="sourcePoint" />
            <Array as="points">
              <mxPoint x="1132" y="930" />
              <mxPoint x="972" y="930" />
              <mxPoint x="972" y="960" />
              <mxPoint x="780" y="960" />
            </Array>
          </mxGeometry>
        </mxCell>
        <mxCell id="r1fxnzbcHuvRSDstyBEK-71" value="dist = min(dist,&lt;br&gt;DL(s1[:lenA-2], s2[:lenB-2]) + 1)" style="rounded=0;whiteSpace=wrap;html=1;strokeWidth=2;" parent="1" vertex="1">
          <mxGeometry x="1030" y="840" width="200" height="70" as="geometry" />
        </mxCell>
        <mxCell id="r1fxnzbcHuvRSDstyBEK-72" value="" style="endArrow=none;html=1;rounded=0;exitX=0;exitY=0.5;exitDx=0;exitDy=0;endFill=0;" parent="1" source="r1fxnzbcHuvRSDstyBEK-69" edge="1">
          <mxGeometry width="50" height="50" relative="1" as="geometry">
            <mxPoint x="860" y="765" as="sourcePoint" />
            <mxPoint x="970" y="930" as="targetPoint" />
            <Array as="points">
              <mxPoint x="820" y="760" />
              <mxPoint x="820" y="820" />
              <mxPoint x="820" y="920" />
              <mxPoint x="820" y="930" />
            </Array>
          </mxGeometry>
        </mxCell>
        <mxCell id="r1fxnzbcHuvRSDstyBEK-73" style="edgeStyle=orthogonalEdgeStyle;rounded=0;orthogonalLoop=1;jettySize=auto;html=1;exitX=0.5;exitY=1;exitDx=0;exitDy=0;endArrow=none;endFill=0;" parent="1" source="r1fxnzbcHuvRSDstyBEK-74" edge="1">
          <mxGeometry relative="1" as="geometry">
            <mxPoint x="380" y="570" as="targetPoint" />
            <Array as="points">
              <mxPoint x="330" y="570" />
            </Array>
          </mxGeometry>
        </mxCell>
        <mxCell id="r1fxnzbcHuvRSDstyBEK-74" value="dist = lenB" style="rounded=0;whiteSpace=wrap;html=1;strokeWidth=2;" parent="1" vertex="1">
          <mxGeometry x="250" y="310" width="160" height="60" as="geometry" />
        </mxCell>
        <mxCell id="r1fxnzbcHuvRSDstyBEK-75" value="&lt;span style=&quot;caret-color: rgb(0, 0, 0); color: rgb(0, 0, 0); font-family: Helvetica; font-size: 11px; font-style: normal; font-variant-caps: normal; font-weight: 400; letter-spacing: normal; text-align: center; text-indent: 0px; text-transform: none; word-spacing: 0px; -webkit-text-stroke-width: 0px; background-color: rgb(255, 255, 255); text-decoration: none; float: none; display: inline !important;&quot;&gt;ДА&lt;/span&gt;" style="text;whiteSpace=wrap;html=1;" parent="1" vertex="1">
          <mxGeometry x="340" y="220" width="50" height="40" as="geometry" />
        </mxCell>
        <mxCell id="r1fxnzbcHuvRSDstyBEK-76" value="" style="endArrow=none;html=1;rounded=0;exitX=0.5;exitY=1;exitDx=0;exitDy=0;endFill=0;" parent="1" source="r1fxnzbcHuvRSDstyBEK-52" edge="1">
          <mxGeometry width="50" height="50" relative="1" as="geometry">
            <mxPoint x="750" y="710" as="sourcePoint" />
            <mxPoint x="380" y="570" as="targetPoint" />
            <Array as="points">
              <mxPoint x="450" y="570" />
            </Array>
          </mxGeometry>
        </mxCell>
        <mxCell id="r1fxnzbcHuvRSDstyBEK-77" value="" style="endArrow=none;html=1;rounded=0;entryX=0.5;entryY=0;entryDx=0;entryDy=0;entryPerimeter=0;endFill=0;" parent="1" target="r1fxnzbcHuvRSDstyBEK-53" edge="1">
          <mxGeometry width="50" height="50" relative="1" as="geometry">
            <mxPoint x="390" y="570" as="sourcePoint" />
            <mxPoint x="800" y="660" as="targetPoint" />
            <Array as="points">
              <mxPoint x="390" y="980" />
              <mxPoint x="740" y="980" />
            </Array>
          </mxGeometry>
        </mxCell>
        <mxCell id="r1fxnzbcHuvRSDstyBEK-80" value="ДА" style="text;html=1;align=center;verticalAlign=middle;resizable=0;points=[];autosize=1;strokeColor=none;fillColor=none;" parent="1" vertex="1">
          <mxGeometry x="1070" y="728" width="40" height="30" as="geometry" />
        </mxCell>
      </root>
    </mxGraphModel>
  </diagram>
  <diagram id="yEzbSavY-p5VtLpKtATz" name="Страница — 2">
    <mxGraphModel dx="1687" dy="973" grid="1" gridSize="10" guides="1" tooltips="1" connect="1" arrows="1" fold="1" page="1" pageScale="1" pageWidth="827" pageHeight="1169" math="0" shadow="0">
      <root>
        <mxCell id="0" />
        <mxCell id="1" parent="0" />
        <mxCell id="B0wVBhrsazm8VdqpRqqb-1" style="edgeStyle=orthogonalEdgeStyle;rounded=0;orthogonalLoop=1;jettySize=auto;html=1;exitX=0.5;exitY=1;exitDx=0;exitDy=0;exitPerimeter=0;entryX=0.5;entryY=0;entryDx=0;entryDy=0;" edge="1" parent="1" source="B0wVBhrsazm8VdqpRqqb-2" target="B0wVBhrsazm8VdqpRqqb-4">
          <mxGeometry relative="1" as="geometry" />
        </mxCell>
        <mxCell id="B0wVBhrsazm8VdqpRqqb-2" value="Начало" style="strokeWidth=2;html=1;shape=mxgraph.flowchart.terminator;whiteSpace=wrap;" vertex="1" parent="1">
          <mxGeometry x="380" y="20" width="120" height="60" as="geometry" />
        </mxCell>
        <mxCell id="B0wVBhrsazm8VdqpRqqb-3" style="edgeStyle=orthogonalEdgeStyle;rounded=0;orthogonalLoop=1;jettySize=auto;html=1;exitX=0.5;exitY=1;exitDx=0;exitDy=0;entryX=0.5;entryY=0;entryDx=0;entryDy=0;" edge="1" parent="1" source="B0wVBhrsazm8VdqpRqqb-4" target="B0wVBhrsazm8VdqpRqqb-6">
          <mxGeometry relative="1" as="geometry" />
        </mxCell>
        <mxCell id="B0wVBhrsazm8VdqpRqqb-4" value="lenS1 = len(s1) + 1&lt;br&gt;lenS2 = len(s2) + 1" style="rounded=0;whiteSpace=wrap;html=1;strokeWidth=2;" vertex="1" parent="1">
          <mxGeometry x="360" y="100" width="160" height="60" as="geometry" />
        </mxCell>
        <mxCell id="B0wVBhrsazm8VdqpRqqb-5" style="edgeStyle=orthogonalEdgeStyle;rounded=0;orthogonalLoop=1;jettySize=auto;html=1;exitX=0.5;exitY=1;exitDx=0;exitDy=0;entryX=0.5;entryY=0;entryDx=0;entryDy=0;" edge="1" parent="1" source="B0wVBhrsazm8VdqpRqqb-6" target="B0wVBhrsazm8VdqpRqqb-9">
          <mxGeometry relative="1" as="geometry" />
        </mxCell>
        <mxCell id="B0wVBhrsazm8VdqpRqqb-6" value="" style="verticalLabelPosition=bottom;verticalAlign=top;html=1;shape=process;whiteSpace=wrap;rounded=0;size=0.14;arcSize=6;strokeWidth=2;" vertex="1" parent="1">
          <mxGeometry x="360" y="180" width="160" height="60" as="geometry" />
        </mxCell>
        <mxCell id="B0wVBhrsazm8VdqpRqqb-7" value="Создание матрицы matrix" style="text;html=1;strokeColor=none;fillColor=none;align=center;verticalAlign=middle;whiteSpace=wrap;rounded=0;" vertex="1" parent="1">
          <mxGeometry x="410" y="195" width="60" height="30" as="geometry" />
        </mxCell>
        <mxCell id="B0wVBhrsazm8VdqpRqqb-8" style="edgeStyle=orthogonalEdgeStyle;rounded=0;orthogonalLoop=1;jettySize=auto;html=1;exitX=0.5;exitY=1;exitDx=0;exitDy=0;entryX=0.5;entryY=0;entryDx=0;entryDy=0;entryPerimeter=0;" edge="1" parent="1" source="B0wVBhrsazm8VdqpRqqb-9" target="B0wVBhrsazm8VdqpRqqb-12">
          <mxGeometry relative="1" as="geometry" />
        </mxCell>
        <mxCell id="B0wVBhrsazm8VdqpRqqb-9" value="" style="verticalLabelPosition=bottom;verticalAlign=top;html=1;shape=process;whiteSpace=wrap;rounded=0;size=0.14;arcSize=6;strokeWidth=2;" vertex="1" parent="1">
          <mxGeometry x="360" y="260" width="160" height="60" as="geometry" />
        </mxCell>
        <mxCell id="B0wVBhrsazm8VdqpRqqb-10" value="Инициализация матрицы matrix" style="text;html=1;strokeColor=none;fillColor=none;align=center;verticalAlign=middle;whiteSpace=wrap;rounded=0;" vertex="1" parent="1">
          <mxGeometry x="410" y="275" width="60" height="30" as="geometry" />
        </mxCell>
        <mxCell id="B0wVBhrsazm8VdqpRqqb-11" style="edgeStyle=orthogonalEdgeStyle;rounded=0;orthogonalLoop=1;jettySize=auto;html=1;exitX=0.5;exitY=1;exitDx=0;exitDy=0;exitPerimeter=0;entryX=0.5;entryY=0;entryDx=0;entryDy=0;" edge="1" parent="1" source="B0wVBhrsazm8VdqpRqqb-12" target="B0wVBhrsazm8VdqpRqqb-16">
          <mxGeometry relative="1" as="geometry" />
        </mxCell>
        <mxCell id="B0wVBhrsazm8VdqpRqqb-12" value="i = 1; i &amp;lt; lenS1; i++&amp;nbsp;" style="strokeWidth=2;html=1;shape=mxgraph.flowchart.loop_limit;whiteSpace=wrap;" vertex="1" parent="1">
          <mxGeometry x="360" y="340" width="160" height="60" as="geometry" />
        </mxCell>
        <mxCell id="B0wVBhrsazm8VdqpRqqb-13" style="edgeStyle=orthogonalEdgeStyle;rounded=0;orthogonalLoop=1;jettySize=auto;html=1;exitX=0.5;exitY=1;exitDx=0;exitDy=0;exitPerimeter=0;entryX=0.5;entryY=0;entryDx=0;entryDy=0;" edge="1" parent="1" source="B0wVBhrsazm8VdqpRqqb-14" target="B0wVBhrsazm8VdqpRqqb-18">
          <mxGeometry relative="1" as="geometry" />
        </mxCell>
        <mxCell id="B0wVBhrsazm8VdqpRqqb-14" value="j = 1; j &amp;lt; lenS2; j++&amp;nbsp;" style="strokeWidth=2;html=1;shape=mxgraph.flowchart.loop_limit;whiteSpace=wrap;" vertex="1" parent="1">
          <mxGeometry x="360" y="500" width="160" height="60" as="geometry" />
        </mxCell>
        <mxCell id="B0wVBhrsazm8VdqpRqqb-15" style="edgeStyle=orthogonalEdgeStyle;rounded=0;orthogonalLoop=1;jettySize=auto;html=1;exitX=0.5;exitY=1;exitDx=0;exitDy=0;entryX=0.5;entryY=0;entryDx=0;entryDy=0;entryPerimeter=0;" edge="1" parent="1" source="B0wVBhrsazm8VdqpRqqb-16" target="B0wVBhrsazm8VdqpRqqb-14">
          <mxGeometry relative="1" as="geometry" />
        </mxCell>
        <mxCell id="B0wVBhrsazm8VdqpRqqb-16" value="r1 = s1[i - 1]" style="rounded=0;whiteSpace=wrap;html=1;strokeWidth=2;" vertex="1" parent="1">
          <mxGeometry x="360" y="420" width="160" height="60" as="geometry" />
        </mxCell>
        <mxCell id="B0wVBhrsazm8VdqpRqqb-17" style="edgeStyle=orthogonalEdgeStyle;rounded=0;orthogonalLoop=1;jettySize=auto;html=1;exitX=0.5;exitY=1;exitDx=0;exitDy=0;entryX=0.5;entryY=0;entryDx=0;entryDy=0;entryPerimeter=0;" edge="1" parent="1" source="B0wVBhrsazm8VdqpRqqb-18" target="B0wVBhrsazm8VdqpRqqb-23">
          <mxGeometry relative="1" as="geometry" />
        </mxCell>
        <mxCell id="B0wVBhrsazm8VdqpRqqb-18" value="r2 = s2[j - 1]" style="rounded=0;whiteSpace=wrap;html=1;strokeWidth=2;" vertex="1" parent="1">
          <mxGeometry x="360" y="580" width="160" height="60" as="geometry" />
        </mxCell>
        <mxCell id="B0wVBhrsazm8VdqpRqqb-19" style="edgeStyle=orthogonalEdgeStyle;rounded=0;orthogonalLoop=1;jettySize=auto;html=1;exitX=0;exitY=0.5;exitDx=0;exitDy=0;exitPerimeter=0;entryX=0.5;entryY=0;entryDx=0;entryDy=0;" edge="1" parent="1" source="B0wVBhrsazm8VdqpRqqb-23" target="B0wVBhrsazm8VdqpRqqb-25">
          <mxGeometry relative="1" as="geometry" />
        </mxCell>
        <mxCell id="B0wVBhrsazm8VdqpRqqb-20" value="НЕТ" style="edgeLabel;html=1;align=center;verticalAlign=middle;resizable=0;points=[];" vertex="1" connectable="0" parent="B0wVBhrsazm8VdqpRqqb-19">
          <mxGeometry x="-0.4615" y="1" relative="1" as="geometry">
            <mxPoint y="-11" as="offset" />
          </mxGeometry>
        </mxCell>
        <mxCell id="B0wVBhrsazm8VdqpRqqb-21" style="edgeStyle=orthogonalEdgeStyle;rounded=0;orthogonalLoop=1;jettySize=auto;html=1;exitX=1;exitY=0.5;exitDx=0;exitDy=0;exitPerimeter=0;" edge="1" parent="1" source="B0wVBhrsazm8VdqpRqqb-23" target="B0wVBhrsazm8VdqpRqqb-27">
          <mxGeometry relative="1" as="geometry" />
        </mxCell>
        <mxCell id="B0wVBhrsazm8VdqpRqqb-22" value="ДА" style="edgeLabel;html=1;align=center;verticalAlign=middle;resizable=0;points=[];" vertex="1" connectable="0" parent="B0wVBhrsazm8VdqpRqqb-21">
          <mxGeometry x="-0.4769" y="3" relative="1" as="geometry">
            <mxPoint y="-7" as="offset" />
          </mxGeometry>
        </mxCell>
        <mxCell id="B0wVBhrsazm8VdqpRqqb-23" value="r1 == r2" style="strokeWidth=2;html=1;shape=mxgraph.flowchart.decision;whiteSpace=wrap;" vertex="1" parent="1">
          <mxGeometry x="360" y="660" width="160" height="100" as="geometry" />
        </mxCell>
        <mxCell id="B0wVBhrsazm8VdqpRqqb-34" style="edgeStyle=orthogonalEdgeStyle;rounded=0;orthogonalLoop=1;jettySize=auto;html=1;exitX=0.5;exitY=1;exitDx=0;exitDy=0;entryX=0.5;entryY=0;entryDx=0;entryDy=0;entryPerimeter=0;" edge="1" parent="1" source="B0wVBhrsazm8VdqpRqqb-25" target="B0wVBhrsazm8VdqpRqqb-33">
          <mxGeometry relative="1" as="geometry" />
        </mxCell>
        <mxCell id="B0wVBhrsazm8VdqpRqqb-25" value="matrix[i][j] = min(matrix[i][j], matrix[i - 1][j - 1] + 1)" style="rounded=0;whiteSpace=wrap;html=1;strokeWidth=2;" vertex="1" parent="1">
          <mxGeometry x="200" y="760" width="160" height="60" as="geometry" />
        </mxCell>
        <mxCell id="B0wVBhrsazm8VdqpRqqb-35" style="edgeStyle=orthogonalEdgeStyle;rounded=0;orthogonalLoop=1;jettySize=auto;html=1;exitX=0.5;exitY=1;exitDx=0;exitDy=0;entryX=0.5;entryY=0;entryDx=0;entryDy=0;entryPerimeter=0;startArrow=none;startFill=0;" edge="1" parent="1" source="B0wVBhrsazm8VdqpRqqb-27" target="B0wVBhrsazm8VdqpRqqb-33">
          <mxGeometry relative="1" as="geometry" />
        </mxCell>
        <mxCell id="B0wVBhrsazm8VdqpRqqb-27" value="matrix[i][j] = min(matrix[i][j], matrix[i - 1][j - 1])" style="rounded=0;whiteSpace=wrap;html=1;strokeWidth=2;" vertex="1" parent="1">
          <mxGeometry x="520" y="760" width="160" height="60" as="geometry" />
        </mxCell>
        <mxCell id="B0wVBhrsazm8VdqpRqqb-28" value="Конец" style="strokeWidth=2;html=1;shape=mxgraph.flowchart.terminator;whiteSpace=wrap;" vertex="1" parent="1">
          <mxGeometry x="380" y="1410" width="120" height="60" as="geometry" />
        </mxCell>
        <mxCell id="B0wVBhrsazm8VdqpRqqb-29" style="edgeStyle=orthogonalEdgeStyle;rounded=0;orthogonalLoop=1;jettySize=auto;html=1;exitX=0.5;exitY=0;exitDx=0;exitDy=0;exitPerimeter=0;entryX=0.5;entryY=1;entryDx=0;entryDy=0;entryPerimeter=0;" edge="1" parent="1" source="B0wVBhrsazm8VdqpRqqb-30" target="B0wVBhrsazm8VdqpRqqb-32">
          <mxGeometry relative="1" as="geometry" />
        </mxCell>
        <mxCell id="B0wVBhrsazm8VdqpRqqb-30" value="Конец цикла по j" style="strokeWidth=2;html=1;shape=mxgraph.flowchart.loop_limit;whiteSpace=wrap;direction=west;" vertex="1" parent="1">
          <mxGeometry x="360" y="1250" width="160" height="60" as="geometry" />
        </mxCell>
        <mxCell id="B0wVBhrsazm8VdqpRqqb-31" style="edgeStyle=orthogonalEdgeStyle;rounded=0;orthogonalLoop=1;jettySize=auto;html=1;exitX=0.5;exitY=0;exitDx=0;exitDy=0;exitPerimeter=0;entryX=0.5;entryY=0;entryDx=0;entryDy=0;entryPerimeter=0;" edge="1" parent="1" source="B0wVBhrsazm8VdqpRqqb-32" target="B0wVBhrsazm8VdqpRqqb-28">
          <mxGeometry relative="1" as="geometry" />
        </mxCell>
        <mxCell id="B0wVBhrsazm8VdqpRqqb-32" value="Конец цикла по i" style="strokeWidth=2;html=1;shape=mxgraph.flowchart.loop_limit;whiteSpace=wrap;direction=west;" vertex="1" parent="1">
          <mxGeometry x="360" y="1330" width="160" height="60" as="geometry" />
        </mxCell>
        <mxCell id="B0wVBhrsazm8VdqpRqqb-37" style="edgeStyle=orthogonalEdgeStyle;rounded=0;orthogonalLoop=1;jettySize=auto;html=1;exitX=1;exitY=0.5;exitDx=0;exitDy=0;exitPerimeter=0;entryX=0.5;entryY=0;entryDx=0;entryDy=0;entryPerimeter=0;" edge="1" parent="1" source="B0wVBhrsazm8VdqpRqqb-33" target="B0wVBhrsazm8VdqpRqqb-36">
          <mxGeometry relative="1" as="geometry" />
        </mxCell>
        <mxCell id="B0wVBhrsazm8VdqpRqqb-38" value="ДА" style="edgeLabel;html=1;align=center;verticalAlign=middle;resizable=0;points=[];" vertex="1" connectable="0" parent="B0wVBhrsazm8VdqpRqqb-37">
          <mxGeometry x="-0.1385" y="-2" relative="1" as="geometry">
            <mxPoint y="-12" as="offset" />
          </mxGeometry>
        </mxCell>
        <mxCell id="B0wVBhrsazm8VdqpRqqb-39" style="edgeStyle=orthogonalEdgeStyle;rounded=0;orthogonalLoop=1;jettySize=auto;html=1;exitX=0;exitY=0.5;exitDx=0;exitDy=0;exitPerimeter=0;entryX=0.5;entryY=1;entryDx=0;entryDy=0;entryPerimeter=0;" edge="1" parent="1" source="B0wVBhrsazm8VdqpRqqb-33" target="B0wVBhrsazm8VdqpRqqb-30">
          <mxGeometry relative="1" as="geometry">
            <Array as="points">
              <mxPoint x="320" y="910" />
              <mxPoint x="320" y="1210" />
              <mxPoint x="440" y="1210" />
            </Array>
          </mxGeometry>
        </mxCell>
        <mxCell id="B0wVBhrsazm8VdqpRqqb-40" value="НЕТ" style="edgeLabel;html=1;align=center;verticalAlign=middle;resizable=0;points=[];" vertex="1" connectable="0" parent="B0wVBhrsazm8VdqpRqqb-39">
          <mxGeometry x="-0.888" y="-1" relative="1" as="geometry">
            <mxPoint y="-9" as="offset" />
          </mxGeometry>
        </mxCell>
        <mxCell id="B0wVBhrsazm8VdqpRqqb-33" value="i &amp;gt; 2 &amp;amp;&amp;amp; j &amp;gt; 2" style="strokeWidth=2;html=1;shape=mxgraph.flowchart.decision;whiteSpace=wrap;" vertex="1" parent="1">
          <mxGeometry x="360" y="860" width="160" height="100" as="geometry" />
        </mxCell>
        <mxCell id="B0wVBhrsazm8VdqpRqqb-42" style="edgeStyle=orthogonalEdgeStyle;rounded=0;orthogonalLoop=1;jettySize=auto;html=1;exitX=1;exitY=0.5;exitDx=0;exitDy=0;exitPerimeter=0;entryX=0.5;entryY=0;entryDx=0;entryDy=0;" edge="1" parent="1" source="B0wVBhrsazm8VdqpRqqb-36" target="B0wVBhrsazm8VdqpRqqb-41">
          <mxGeometry relative="1" as="geometry" />
        </mxCell>
        <mxCell id="B0wVBhrsazm8VdqpRqqb-52" value="ДА&lt;br&gt;" style="edgeLabel;html=1;align=center;verticalAlign=middle;resizable=0;points=[];" vertex="1" connectable="0" parent="B0wVBhrsazm8VdqpRqqb-42">
          <mxGeometry x="-0.44" y="4" relative="1" as="geometry">
            <mxPoint x="-2" y="-11" as="offset" />
          </mxGeometry>
        </mxCell>
        <mxCell id="B0wVBhrsazm8VdqpRqqb-51" style="edgeStyle=orthogonalEdgeStyle;rounded=0;orthogonalLoop=1;jettySize=auto;html=1;exitX=0;exitY=0.5;exitDx=0;exitDy=0;exitPerimeter=0;endArrow=none;endFill=0;" edge="1" parent="1" source="B0wVBhrsazm8VdqpRqqb-36">
          <mxGeometry relative="1" as="geometry">
            <mxPoint x="600" y="1160" as="targetPoint" />
            <Array as="points">
              <mxPoint x="490" y="1010" />
              <mxPoint x="490" y="1160" />
            </Array>
          </mxGeometry>
        </mxCell>
        <mxCell id="B0wVBhrsazm8VdqpRqqb-36" value="s1[i - 1] == s2[j - 2]&lt;br&gt;&amp;amp;&amp;amp;&lt;br&gt;s1[i - 2] == s2[j - 1]" style="strokeWidth=2;html=1;shape=mxgraph.flowchart.decision;whiteSpace=wrap;" vertex="1" parent="1">
          <mxGeometry x="520" y="960" width="160" height="100" as="geometry" />
        </mxCell>
        <mxCell id="B0wVBhrsazm8VdqpRqqb-50" style="edgeStyle=orthogonalEdgeStyle;rounded=0;orthogonalLoop=1;jettySize=auto;html=1;exitX=0.5;exitY=1;exitDx=0;exitDy=0;endArrow=none;endFill=0;" edge="1" parent="1" source="B0wVBhrsazm8VdqpRqqb-41">
          <mxGeometry relative="1" as="geometry">
            <mxPoint x="600" y="1180" as="targetPoint" />
          </mxGeometry>
        </mxCell>
        <mxCell id="B0wVBhrsazm8VdqpRqqb-41" value="matrix[i][j] = min(matrix[i][j], matrix[i - 2][j - 2] + 1)" style="rounded=0;whiteSpace=wrap;html=1;strokeWidth=2;" vertex="1" parent="1">
          <mxGeometry x="680" y="1080" width="160" height="60" as="geometry" />
        </mxCell>
        <mxCell id="B0wVBhrsazm8VdqpRqqb-49" value="" style="endArrow=classic;html=1;rounded=0;entryX=0.5;entryY=1;entryDx=0;entryDy=0;entryPerimeter=0;" edge="1" parent="1" target="B0wVBhrsazm8VdqpRqqb-30">
          <mxGeometry width="50" height="50" relative="1" as="geometry">
            <mxPoint x="600" y="1180" as="sourcePoint" />
            <mxPoint x="520" y="1140" as="targetPoint" />
            <Array as="points">
              <mxPoint x="600" y="1210" />
              <mxPoint x="440" y="1210" />
            </Array>
          </mxGeometry>
        </mxCell>
        <mxCell id="B0wVBhrsazm8VdqpRqqb-53" value="НЕТ" style="text;html=1;align=center;verticalAlign=middle;resizable=0;points=[];autosize=1;strokeColor=none;fillColor=none;fontSize=11;" vertex="1" parent="1">
          <mxGeometry x="480" y="980" width="50" height="30" as="geometry" />
        </mxCell>
      </root>
    </mxGraphModel>
  </diagram>
</mxfile>
